<?xml version="1.0" encoding="UTF-8"?>
<!DOCTYPE svg PUBLIC "-//W3C//DTD SVG 1.1//EN" "http://www.w3.org/Graphics/SVG/1.1/DTD/svg11.dtd">
<!-- Creator: CorelDRAW 2020 (64 Bit) -->
<svg xmlns="http://www.w3.org/2000/svg" xml:space="preserve" width="210mm" height="297mm" version="1.1" style="shape-rendering:geometricPrecision; text-rendering:geometricPrecision; image-rendering:optimizeQuality; fill-rule:evenodd; clip-rule:evenodd"
viewBox="0 0 21000 29700"
 xmlns:xlink="http://www.w3.org/1999/xlink"
 xmlns:xodm="http://www.corel.com/coreldraw/odm/2003">
 <defs>
  <style type="text/css">
   <![CDATA[
    .str0 {stroke:#2E287D;stroke-width:70.56;stroke-miterlimit:22.9256}
    .fil2 {fill:none}
    .fil3 {fill:#FEFEFE}
    .fil0 {fill:#2E287D}
    .fil1 {fill:white}
   ]]>
  </style>
 </defs>
 <g id="Camada_x0020_1">
  <metadata id="CorelCorpID_0Corel-Layer"/>
  <g id="_1195777472">
   <path class="fil0" d="M8268.32 7792.26c294.74,91.64 1366.96,534.94 1562.42,570.81 57.91,10.63 150.59,36.89 228.43,71.91 -3.64,167.6 -98.69,417.47 -248,491.46 -66.63,33.01 -107.23,56.4 -159.39,93.05 12.75,76.43 19.96,39.25 47.64,133.19 -100.9,148.82 -257.88,240.43 -325.31,401.91 40.42,79.98 483.71,480.7 579.17,508.69l323.55 -356.72c51.19,-32.49 -2.79,-12.08 71.53,-19.89l83.73 -2.8c87.7,-5.65 30.27,-180.69 202.2,-281.31 63.53,-37.2 247.87,-126.4 323.77,-138.76 120.54,152.34 141.68,403.69 295.56,656.88 34.12,56.13 30.2,36.93 62.2,83.52l474.78 975.74c137.79,-22.42 405.33,-380.49 484.52,-480.63 94.31,-119.26 158.73,-590.44 192.37,-775.91 35.53,-195.92 95.4,-667.2 167.85,-817.8 69.37,-144.23 65.34,-181.03 101.49,-389.69 73.98,-426.9 34.39,-385 343.36,-628.54 112.45,-88.64 153.09,-128.52 258.33,-229.66 305.81,-293.87 683.09,-660.66 953.93,-998.5l454.99 -520.95c430.3,-457.02 1344.72,-1648.45 1708.78,-2195.95 330.04,-496.35 1204.16,-2361.16 1099.7,-2823.97 -202.23,-117.98 -289.12,-34.66 -711.15,138.51 -1875.87,769.72 -3189.8,2083.34 -4505.62,3535.33 -261.43,288.49 -685.56,761.46 -918.51,1091.21 -575.77,815 -103.66,551.93 -1924.73,1093.9 -165.59,49.29 -644.69,176.99 -754.35,242.72 -92.68,55.56 -432.11,430.19 -473.24,572.25z"/>
   <path class="fil0" d="M6305.37 3372c316.93,-104.81 570.13,113.31 647.46,341.69 102.67,303.18 -118.42,587.07 -333.88,641 -712.78,178.42 -981.21,-761.9 -313.58,-982.69zm1706.75 -19.13c637.11,-143.7 829.86,954.54 162.61,1014.84 -353.72,31.97 -581.59,-137.19 -608.78,-441.4 -30.3,-338.93 179.18,-513.21 446.17,-573.44zm1610.72 4.05c634.85,-169.63 887.76,906.61 213.63,1006.59 -750.24,111.26 -899.3,-823.39 -213.63,-1006.59zm1478.76 1584.45c230.07,0.32 461.14,-1.75 690.81,-2.08 183.04,-0.26 168.06,8.46 251.93,-97.32l1507.43 -1564.54c117.92,-112.47 630.76,-581.38 681.28,-668.32 -2459.83,-27.22 -5126.5,-2.95 -7609.92,-5.17 -1662.1,-1.48 -1469.97,1018.53 -1471.69,2299.93l-6.32 5799.05c-0.81,1691.48 838.6,1570.39 2224.42,1570.75l6488.05 -0.75c696.72,-2.13 1484.08,92.9 1921.09,-366.29 260.83,-274.08 339.1,-542.22 339.75,-1031.46l1.24 -6105.03c-127.55,120.53 -257.2,305.45 -367.21,449.68 -75.07,98.42 -134.46,139.77 -131.47,313.86l-2.03 3320.45c41.14,263.91 22.47,991.78 22.01,1332.04 -0.62,448.54 88.88,1129.9 -224.38,1414.45 -247.14,224.48 -479.34,193.11 -870,191.78l-7636.37 -1.3c-786.83,0.55 -1306,82.57 -1305.77,-973.35l1.19 -1779.91c15.7,-1306.84 -33.27,-2842.13 1.99,-4099.9l5493.97 3.43z"/>
   <path class="fil1" d="M9622.84 3356.92c-685.67,183.2 -536.61,1117.85 213.63,1006.59 674.13,-99.98 421.22,-1176.22 -213.63,-1006.59z"/>
   <path class="fil1" d="M6305.37 3372c-667.63,220.79 -399.2,1161.11 313.58,982.69 215.46,-53.93 436.55,-337.82 333.88,-641 -77.33,-228.38 -330.53,-446.5 -647.46,-341.69z"/>
   <path class="fil1" d="M8012.12 3352.87c-266.99,60.23 -476.47,234.51 -446.17,573.44 27.19,304.21 255.06,473.37 608.78,441.4 667.25,-60.3 474.5,-1158.54 -162.61,-1014.84z"/>
   <path class="fil2 str0" d="M15646.03 8777.26c10.59,612.05 21.17,1224.09 26.51,1572.85 5.33,348.74 5.43,434.19 2.19,522.83 -3.23,88.63 -9.78,180.47 -23.89,273.24 -14.11,92.77 -35.76,186.48 -70.36,272.31 -34.59,85.82 -82.13,163.77 -145.75,229.15 -63.62,65.38 -143.32,118.21 -213.03,151.71 -69.7,33.51 -129.41,47.69 -208.62,56.35 -79.2,8.66 -177.91,11.78 -227.27,13.35 -49.35,1.57 -49.35,1.57 -49.35,1.57"/>
  </g>
  <g id="_1195776416">
   <path class="fil3" d="M12555.31 5895.24c1.19,-26.23 -54.76,-259.3 -60.83,-273.37 -90.05,1.17 -280.52,91.36 -363.59,154.79 -199.46,152.3 -442.62,497.62 -266.49,741.95 96.33,133.64 211.56,194.91 367.82,170.61 143.21,-22.27 233.26,-91.29 362.33,-189.34 97.42,-74.01 263.73,-237.12 363.87,-153.69 56.02,46.68 45.56,129.74 20.78,187.26 -57.59,133.69 -201.36,231.52 -328.35,285.87 -29.77,12.73 -59.92,25.29 -92.27,35.28 -37.77,11.67 -76.12,14.84 -92.87,28.67 13.48,30.78 26.22,96.14 35.73,133.89 20.47,81.22 12.49,96.17 55.11,131.27l91.22 -23.03c31.09,-8.8 57.47,-16.86 89.25,-29.39 292.4,-115.27 668.15,-504.43 535.73,-822.17 -54.51,-130.82 -199.38,-246.08 -326.57,-260.51 -139.06,-15.78 -246.29,50.6 -362.28,129.98 -100.91,69.06 -256.13,209.44 -351.97,241.35 -92.41,30.76 -140.97,-49.78 -135.58,-102.35 6.09,-59.41 52.06,-137.95 102.71,-192.9 139.43,-151.3 321.13,-173.79 356.25,-194.17z"/>
   <path class="fil3" d="M13557.76 5424.88c-0.46,-26.43 -7.46,-54.31 -10.3,-79.98 -8.93,-80.58 -70.95,-536.42 -81.33,-551.72l-228.05 260.49c10.28,44.42 16.91,91.84 23.91,137.55 8.41,54.89 73.58,391.25 67.14,413.6l-625.05 -546.11 -104.12 118.34c-92.06,105.69 -94.02,87.85 -50.97,124.99l379.94 332.85c215.17,187.95 462.83,413.4 672.87,590.03 58.6,-66.75 132.29,-147.13 186.81,-216.31l-66.75 -59.23c-25.35,-22.24 -98.47,-74.87 -103.36,-104.84 -4.36,-26.83 -19.56,-122.15 -15.63,-135.65 17.71,-5.03 183.86,6.69 218.61,7.97 39.56,1.47 72.66,3.36 110.89,4.85 25.75,1.01 84.61,6.72 107.13,3.83l224.04 -255.33c-18.17,-10.25 -302.09,-20.68 -352.23,-22.88 -44.12,-1.94 -333.71,-14.01 -353.55,-22.45z"/>
   <path class="fil3" d="M14394.16 4735.77c-37.92,1.73 -580.06,-213.16 -672.3,-235.66l-216.18 246.19c16.35,11.74 332.79,106.13 377.53,119.44 60.77,18.08 120.87,39.02 185.68,57.53 142.67,40.76 321.54,100.2 468.41,145.87 22.26,6.92 22.31,7.46 33.1,30.2 29.3,61.7 180.41,379.85 196.11,394.57l203.01 -232.56c-2.49,-19.2 -69.53,-147.75 -84.77,-176.17 -31.01,-57.82 -57.73,-115.44 -86.5,-173.1l-433.66 -866.42c-20.48,-41.47 -64.25,-141.68 -90.46,-175.47l-215.98 248.72 336.01 616.86z"/>
   <path class="fil3" d="M15467.18 3354.66c-144.1,-103.8 -164.59,-279.51 -79.74,-405.7 96.7,-143.81 289.66,-158 409.33,-67.69 141.16,106.52 170.37,279.75 80.26,408.12 -101.77,145 -279.34,159.29 -409.85,65.27zm-171.05 222.79c239.52,170.66 580.57,125.1 778.5,-137.27 176.58,-234.07 156.84,-594.41 -103.98,-784.9 -236.1,-172.42 -587.77,-116.32 -781.29,139.56 -174.81,231.14 -157.83,594.08 106.77,782.61z"/>
   <path class="fil3" d="M15346.44 4235.04c-53.13,-71.67 -334.38,-273.39 -415.62,-383.24 -51.54,-69.69 -56.48,-135.49 -49.11,-200.98 8.91,-79.15 46.38,-136.29 108.03,-209.39l-209.65 -183.52c-49.39,54.98 -90.55,131.41 -110.02,191.66 -10.13,31.37 -14.82,63.67 -15.09,92.36 -0.29,31.8 7.79,77.12 2.81,84.92l-99.96 -86.15 -185.78 215.19 789.52 690.91 184.87 -211.76z"/>
  </g>
 </g>
</svg>
